TITLE ""
FILE "1Q_j_2291-2300.mp3" MP3
  TRACK 01 AUDIO
    TITLE "1Q_j_2291-2300_01"
    INDEX 01 00:00:00
  TRACK 02 AUDIO
    TITLE "1Q_j_2291-2300_02"
    INDEX 01 00:01:31
  TRACK 03 AUDIO
    TITLE "1Q_j_2291-2300_03"
    INDEX 01 00:01:41
  TRACK 04 AUDIO
    TITLE "1Q_j_2291-2300_04"
    INDEX 01 00:03:40
  TRACK 05 AUDIO
    TITLE "1Q_j_2291-2300_05"
    INDEX 01 00:03:48
  TRACK 06 AUDIO
    TITLE "1Q_j_2291-2300_06"
    INDEX 01 00:09:74
  TRACK 07 AUDIO
    TITLE "1Q_j_2291-2300_07"
    INDEX 01 00:10:44
  TRACK 08 AUDIO
    TITLE "1Q_j_2291-2300_08"
    INDEX 01 00:12:00
  TRACK 09 AUDIO
    TITLE "1Q_j_2291-2300_09"
    INDEX 01 00:12:06
  TRACK 10 AUDIO
    TITLE "1Q_j_2291-2300_10"
    INDEX 01 00:14:30
  TRACK 11 AUDIO
    TITLE "1Q_j_2291-2300_11"
    INDEX 01 00:14:38
  TRACK 12 AUDIO
    TITLE "1Q_j_2291-2300_12"
    INDEX 01 00:21:40
  TRACK 13 AUDIO
    TITLE "1Q_j_2291-2300_13"
    INDEX 01 00:22:10
  TRACK 14 AUDIO
    TITLE "1Q_j_2291-2300_14"
    INDEX 01 00:23:29
  TRACK 15 AUDIO
    TITLE "1Q_j_2291-2300_15"
    INDEX 01 00:23:39
  TRACK 16 AUDIO
    TITLE "1Q_j_2291-2300_16"
    INDEX 01 00:26:16
  TRACK 17 AUDIO
    TITLE "1Q_j_2291-2300_17"
    INDEX 01 00:26:23
  TRACK 18 AUDIO
    TITLE "1Q_j_2291-2300_18"
    INDEX 01 00:33:00
  TRACK 19 AUDIO
    TITLE "1Q_j_2291-2300_19"
    INDEX 01 00:33:47
  TRACK 20 AUDIO
    TITLE "1Q_j_2291-2300_20"
    INDEX 01 00:34:74
  TRACK 21 AUDIO
    TITLE "1Q_j_2291-2300_21"
    INDEX 01 00:35:07
  TRACK 22 AUDIO
    TITLE "1Q_j_2291-2300_22"
    INDEX 01 00:36:73
  TRACK 23 AUDIO
    TITLE "1Q_j_2291-2300_23"
    INDEX 01 00:37:06
  TRACK 24 AUDIO
    TITLE "1Q_j_2291-2300_24"
    INDEX 01 00:43:26
  TRACK 25 AUDIO
    TITLE "1Q_j_2291-2300_25"
    INDEX 01 00:43:71
  TRACK 26 AUDIO
    TITLE "1Q_j_2291-2300_26"
    INDEX 01 00:45:07
  TRACK 27 AUDIO
    TITLE "1Q_j_2291-2300_27"
    INDEX 01 00:45:15
  TRACK 28 AUDIO
    TITLE "1Q_j_2291-2300_28"
    INDEX 01 00:47:24
  TRACK 29 AUDIO
    TITLE "1Q_j_2291-2300_29"
    INDEX 01 00:47:31
  TRACK 30 AUDIO
    TITLE "1Q_j_2291-2300_30"
    INDEX 01 00:54:04
  TRACK 31 AUDIO
    TITLE "1Q_j_2291-2300_31"
    INDEX 01 00:54:47
  TRACK 32 AUDIO
    TITLE "1Q_j_2291-2300_32"
    INDEX 01 00:56:15
  TRACK 33 AUDIO
    TITLE "1Q_j_2291-2300_33"
    INDEX 01 00:56:25
  TRACK 34 AUDIO
    TITLE "1Q_j_2291-2300_34"
    INDEX 01 00:59:23
  TRACK 35 AUDIO
    TITLE "1Q_j_2291-2300_35"
    INDEX 01 00:59:31
  TRACK 36 AUDIO
    TITLE "1Q_j_2291-2300_36"
    INDEX 01 01:05:57
  TRACK 37 AUDIO
    TITLE "1Q_j_2291-2300_37"
    INDEX 01 01:06:27
  TRACK 38 AUDIO
    TITLE "1Q_j_2291-2300_38"
    INDEX 01 01:07:48
  TRACK 39 AUDIO
    TITLE "1Q_j_2291-2300_39"
    INDEX 01 01:07:56
  TRACK 40 AUDIO
    TITLE "1Q_j_2291-2300_40"
    INDEX 01 01:10:11
  TRACK 41 AUDIO
    TITLE "1Q_j_2291-2300_41"
    INDEX 01 01:10:19
  TRACK 42 AUDIO
    TITLE "1Q_j_2291-2300_42"
    INDEX 01 01:14:26
  TRACK 43 AUDIO
    TITLE "1Q_j_2291-2300_43"
    INDEX 01 01:14:73
  TRACK 44 AUDIO
    TITLE "1Q_j_2291-2300_44"
    INDEX 01 01:16:04
  TRACK 45 AUDIO
    TITLE "1Q_j_2291-2300_45"
    INDEX 01 01:16:21
  TRACK 46 AUDIO
    TITLE "1Q_j_2291-2300_46"
    INDEX 01 01:20:19
  TRACK 47 AUDIO
    TITLE "1Q_j_2291-2300_47"
    INDEX 01 01:20:27
  TRACK 48 AUDIO
    TITLE "1Q_j_2291-2300_48"
    INDEX 01 01:25:01
  TRACK 49 AUDIO
    TITLE "1Q_j_2291-2300_49"
    INDEX 01 01:25:46
  TRACK 50 AUDIO
    TITLE "1Q_j_2291-2300_50"
    INDEX 01 01:27:07
  TRACK 51 AUDIO
    TITLE "1Q_j_2291-2300_51"
    INDEX 01 01:27:15
  TRACK 52 AUDIO
    TITLE "1Q_j_2291-2300_52"
    INDEX 01 01:29:47
  TRACK 53 AUDIO
    TITLE "1Q_j_2291-2300_53"
    INDEX 01 01:29:53
  TRACK 54 AUDIO
    TITLE "1Q_j_2291-2300_54"
    INDEX 01 01:34:04
  TRACK 55 AUDIO
    TITLE "1Q_j_2291-2300_55"
    INDEX 01 01:34:47
  TRACK 56 AUDIO
    TITLE "1Q_j_2291-2300_56"
    INDEX 01 01:36:01
  TRACK 57 AUDIO
    TITLE "1Q_j_2291-2300_57"
    INDEX 01 01:36:12
  TRACK 58 AUDIO
    TITLE "1Q_j_2291-2300_58"
    INDEX 01 01:38:29
  TRACK 59 AUDIO
    TITLE "1Q_j_2291-2300_59"
    INDEX 01 01:38:37
  TRACK 60 AUDIO
    TITLE "1Q_j_2291-2300_60"
    INDEX 01 01:45:50
